:SAMPLES-PER-SECOND 30
:FRAME-RANGE 1-2045
:FULLY-SPECIFIED
:DEGREES
1726
root  25.221 38.5667 -66.7297 176.246 -79.504 -168.889
RightUpLeg  3.49619 -7.19623 -4.53571
RightLeg  13.5972 -2.23338 -0.233595
RightFoot  -20.8246 0.793186 11.2386
RightToes  -5.28216e-011 1.2921e-014 -6.02303e-014
Spine  0.387075 2.51497 9.9171
Spine1  6.33031 3.87756 -6.42178
HEad  -4.91106 55.4749 -21.8735
LeftShoulder1  0.368183 1.99685 -22.0453
LeftArm  -13.3962 20.0968 -53.7494
LeftForeArm  10.9741 3.14936 -9.10854
LeftHand  0.0297376 3.27604 -1.67514
RightShoulder  1.98538 4.58306 18.7466
RightArm  -9.68271 25.241 58.4492
RightForeArm  48.3337 11.2402 8.39152
RightHand  -0.0632122 -4.9643 -12.9397
LeftUpLeg  -30.3599 -1.18271 0.681825
LeftLeg  -2.83703 29.6829 1.68287
LeftFoot  -2.85813 0.273663 -3.4584
LeftToes  9.43379e-011 5.24309e-011 -4.66411e-011
1727
root  23.7594 38.2833 -66.8037 175.946 -79.5084 -168.881
RightUpLeg  5.5793 -7.47356 -5.29407
RightLeg  15.1019 -1.13944 -0.32444
RightFoot  -21.8844 1.01765 12.5992
RightToes  -5.28216e-011 1.2921e-014 -6.02303e-014
Spine  -0.0235175 2.50114 9.07468
Spine1  7.20214 4.01392 -6.75452
HEad  -6.49265 55.3941 -22.2382
LeftShoulder1  0.412903 1.82142 -21.7105
LeftArm  -14.2086 20.8373 -54.2836
LeftForeArm  10.5954 3.33101 -8.84877
LeftHand  0.0311816 3.08488 -1.72176
RightShoulder  2.06545 4.97501 18.5111
RightArm  -8.24275 26.5633 61.5408
RightForeArm  49.1856 11.1962 8.5376
RightHand  -0.00949124 -5.45531 -13.2861
LeftUpLeg  -31.399 0.073565 0.549921
LeftLeg  1.72431 32.2889 3.00715
LeftFoot  -2.30137 0.0978338 -1.06238
LeftToes  9.43379e-011 5.24309e-011 -4.66411e-011
1728
root  22.2705 38.0991 -66.8283 178.585 -79.543 -171.905
RightUpLeg  7.14185 -6.31198 -6.59953
RightLeg  17.6342 -0.450051 -0.377182
RightFoot  -22.0058 1.24728 14.8951
RightToes  -5.28216e-011 1.2921e-014 -6.02303e-014
Spine  0.0666349 2.50271 7.18563
Spine1  7.62997 4.2458 -7.0659
HEad  -6.95334 55.2855 -21.5667
LeftShoulder1  0.358793 2.00713 -21.5134
LeftArm  -14.4886 21.6461 -54.4164
LeftForeArm  10.6825 3.07433 -8.81411
LeftHand  0.0289816 3.23741 -1.83384
RightShoulder  2.13064 5.15879 18.7623
RightArm  -6.40138 26.9651 63.7836
RightForeArm  50.8997 11.059 8.85076
RightHand  0.0343876 -5.84275 -13.4245
LeftUpLeg  -32.6633 1.08964 -0.271348
LeftLeg  8.7926 32.9414 5.84258
LeftFoot  2.68218 -0.364786 2.8334
LeftToes  9.43379e-011 5.24309e-011 -4.66411e-011
1729
root  20.787 37.9359 -66.787 -175.351 -80.2981 -178.311
RightUpLeg  6.92149 -3.63796 -8.09921
RightLeg  23.5683 -0.662158 -0.534735
RightFoot  -21.3664 1.50465 18.6672
RightToes  -5.28216e-011 1.2921e-014 -6.02303e-014
Spine  0.597334 2.36926 4.67892
Spine1  7.29971 4.01812 -7.14981
HEad  -8.43802 55.3186 -22.0486
LeftShoulder1  0.343251 2.07903 -21.8902
LeftArm  -14.0026 21.5454 -53.5724
LeftForeArm  10.3363 2.98312 -8.91827
LeftHand  0.0304482 2.95534 -1.82496
RightShoulder  2.20651 5.24963 19.4345
RightArm  -5.44476 26.4047 65.2636
RightForeArm  54.6943 10.8488 9.07263
RightHand  -0.0565298 -5.00633 -12.0645
LeftUpLeg  -34.1796 5.14152 -3.56414
LeftLeg  16.1867 27.0228 7.85391
LeftFoot  3.06491 -0.313005 2.32951
LeftToes  9.43379e-011 5.24309e-011 -4.66411e-011
1730
root  19.2893 37.8122 -66.6935 -171.225 -82.5976 177.535
RightUpLeg  5.28491 -1.53158 -8.45307
RightLeg  31.7819 -0.997158 -0.90681
RightFoot  -18.2271 1.27594 22.993
RightToes  -5.28216e-011 1.2921e-014 -6.02303e-014
Spine  -0.0485894 2.19711 4.03015
Spine1  8.17582 3.89637 -7.80829
HEad  -8.48695 54.1321 -21.2563
LeftShoulder1  0.530518 1.38493 -21.4956
LeftArm  -14.0968 19.8212 -53.6445
LeftForeArm  10.3834 4.06869 -8.74551
LeftHand  0.0259176 3.22901 -1.79355
RightShoulder  2.26056 5.48493 19.3569
RightArm  -6.90373 24.3079 65.5802
RightForeArm  57.0881 10.7056 8.91063
RightHand  -0.0523325 -5.04906 -12.1134
LeftUpLeg  -35.0456 8.35367 -7.09291
LeftLeg  20.9528 20.8705 8.87855
LeftFoot  2.14689 -0.405508 3.31845
LeftToes  9.43379e-011 5.24309e-011 -4.66411e-011
1731
root  17.7878 37.8831 -66.5225 -167.446 -84.8086 173.452
RightUpLeg  1.66455 -2.3392 -9.22864
RightLeg  42.5954 -1.09723 -1.37354
RightFoot  -10.8433 -0.173414 22.513
RightToes  -5.28216e-011 1.2921e-014 -6.02303e-014
Spine  -0.413443 2.20121 4.02086
Spine1  8.59325 4.00445 -8.20729
HEad  -5.53065 53.3056 -19.0794
LeftShoulder1  0.535423 1.31655 -20.7456
LeftArm  -14.619 18.503 -54.368
LeftForeArm  11.0832 3.95625 -8.52675
LeftHand  0.0215985 3.48276 -1.89026
RightShoulder  2.22883 5.33433 19.4419
RightArm  -9.08133 21.8286 64.9527
RightForeArm  59.6461 9.55434 9.02815
RightHand  -0.0186561 -5.38433 -11.909
LeftUpLeg  -33.8034 7.79657 -8.16444
LeftLeg  23.3584 18.6587 8.9297
LeftFoot  1.24452 -0.745117 6.6803
LeftToes  9.43379e-011 5.24309e-011 -4.66411e-011
1732
root  16.2568 38.0513 -66.3356 -160.754 -87.225 165.881
RightUpLeg  -2.70626 -3.40929 -9.09058
RightLeg  53.4217 -2.76513 -4.39115
RightFoot  -0.656701 -1.40934 14.9445
RightToes  -5.28216e-011 1.2921e-014 -6.02303e-014
Spine  -0.105404 1.89646 3.75852
Spine1  8.12594 3.59044 -7.44155
HEad  -2.63479 53.5279 -17.6377
LeftShoulder1  0.47386 1.54733 -20.7806
LeftArm  -14.0824 17.972 -54.0419
LeftForeArm  10.1689 1.87588 -8.72325
LeftHand  0.0236141 3.02937 -1.71289
RightShoulder  2.18607 5.04616 19.8453
RightArm  -11.4559 19.8695 63.7822
RightForeArm  62.5056 7.15754 9.25746
RightHand  -0.00855822 -5.49884 -11.2506
LeftUpLeg  -31.1602 6.3696 -8.46333
LeftLeg  25.2531 17.6542 9.18975
LeftFoot  -1.39998 -0.603683 7.029
LeftToes  9.43379e-011 5.24309e-011 -4.66411e-011
1733
root  14.9027 38.1145 -66.2266 -89.917 -88.6599 94.2425
RightUpLeg  -6.32817 -3.69575 -9.26517
RightLeg  60.9418 -2.47291 -5.33509
RightFoot  1.97488 -1.43523 12.3669
RightToes  -5.28216e-011 1.2921e-014 -6.02303e-014
Spine  0.360808 1.63282 2.58079
Spine1  8.03612 3.22976 -7.30307
HEad  -0.823973 53.4257 -16.4647
LeftShoulder1  0.46631 1.57755 -20.8175
LeftArm  -13.0361 16.9892 -53.3207
LeftForeArm  9.1819 -0.373155 -9.05201
LeftHand  0.0249036 2.52682 -1.42734
RightShoulder  2.17474 4.79069 20.5794
RightArm  -13.7277 17.8624 62.2784
RightForeArm  64.0992 4.03042 8.73156
RightHand  -0.00103043 -5.57974 -11.2396
LeftUpLeg  -28.7569 5.12169 -9.30487
LeftLeg  26.9511 16.5199 9.2579
LeftFoot  -4.02231 -0.406757 6.73147
LeftToes  9.43379e-011 5.24309e-011 -4.66411e-011
1734
root  13.61 38.1726 -66.1379 -33.5936 -86.9254 37.4886
RightUpLeg  -9.77631 -3.69736 -9.35703
RightLeg  65.4819 -1.41139 -4.02431
RightFoot  -1.25413 -1.08703 12.1767
RightToes  -5.28216e-011 1.2921e-014 -6.02303e-014
Spine  0.213252 1.53353 1.64485
Spine1  8.46403 3.07553 -7.5999
HEad  1.00873 52.7978 -14.9925
LeftShoulder1  0.469826 1.55229 -20.6161
LeftArm  -12.7103 15.7289 -53.0051
LeftForeArm  9.26714 -2.63026 -9.13174
LeftHand  0.0254474 2.07914 -1.31825
RightShoulder  2.1335 4.61283 20.6647
RightArm  -16.0423 15.6777 60.9888
RightForeArm  64.2191 0.221914 7.52783
RightHand  0.0206371 -5.77088 -12.1229
LeftUpLeg  -26.5888 3.97544 -9.97032
LeftLeg  28.1568 15.4169 9.1095
LeftFoot  -6.29609 -0.245947 6.4375
LeftToes  9.43379e-011 5.24309e-011 -4.66411e-011
1735
root  12.3079 38.33 -66.0355 -17.3758 -84.3221 20.883
RightUpLeg  -12.9147 -4.14052 -9.10637
RightLeg  66.7462 -1.00103 -3.23761
RightFoot  -3.25778 -0.821387 11.2749
RightToes  -5.28216e-011 1.2921e-014 -6.02303e-014
Spine  0.443776 1.24711 1.06526
Spine1  7.96539 2.67024 -7.54277
HEad  3.41827 52.2522 -13.3513
LeftShoulder1  0.439884 1.65387 -20.4405
LeftArm  -12.2349 14.5873 -52.7327
LeftForeArm  9.45348 -5.05446 -9.28153
LeftHand  0.0206789 1.95355 -1.08028
RightShoulder  2.05112 4.18098 21.143
RightArm  -19.3602 13.0962 59.6608
RightForeArm  65.8227 -3.78677 5.64374
RightHand  0.0694137 -6.19439 -12.8532
LeftUpLeg  -23.754 2.15632 -10.0771
LeftLeg  28.1425 14.7347 8.73681
LeftFoot  -8.13334 -0.116377 5.90085
LeftToes  9.43379e-011 5.24309e-011 -4.66411e-011
1736
root  11.0047 38.5096 -65.9393 -11.0699 -81.2114 14.3013
RightUpLeg  -15.5395 -4.94091 -8.93658
RightLeg  65.0648 -1.32258 -3.72998
RightFoot  -5.77518 -0.559403 10.6671
RightToes  -5.28216e-011 1.2921e-014 -6.02303e-014
Spine  0.550637 0.84914 0.228957
Spine1  7.37433 2.09079 -7.10401
HEad  5.58448 51.5808 -12.0241
LeftShoulder1  0.490388 1.4477 -20.1855
LeftArm  -11.4312 13.6385 -52.7506
LeftForeArm  9.03822 -7.50132 -9.31237
LeftHand  0.0126029 1.80688 -0.741302
RightShoulder  1.93935 3.66345 21.5924
RightArm  -22.999 10.4391 58.0582
RightForeArm  68.1195 -5.42182 3.7815
RightHand  0.0976942 -6.45315 -12.8912
LeftUpLeg  -20.7162 0.242965 -10.1276
LeftLeg  27.4738 13.8427 8.0414
LeftFoot  -9.69384 -0.020221 5.46173
LeftToes  9.43379e-011 5.24309e-011 -4.66411e-011
